<svg width="134" height="142" viewBox="0 0 134 142" fill="none" xmlns="http://www.w3.org/2000/svg">
<circle cx="67" cy="67" r="67" fill="#F3F4F8"/>
<ellipse cx="125.329" cy="46.3778" rx="2.795" ry="2.66896" transform="rotate(-90 125.329 46.3778)" fill="#FFC500"/>
<ellipse cx="119.668" cy="40.4483" rx="2.66896" ry="2.795" fill="#FFC500"/>
<ellipse cx="125.635" cy="34.1993" rx="2.795" ry="2.66896" transform="rotate(90 125.635 34.1993)" fill="#FFC500"/>
<ellipse cx="131.297" cy="40.1288" rx="2.66896" ry="2.795" transform="rotate(-180 131.297 40.1288)" fill="#FFC500"/>
<ellipse cx="15.668" cy="8.66707" rx="2.795" ry="2.66896" transform="rotate(90 15.668 8.66707)" fill="#FFC500"/>
<ellipse cx="17.499" cy="129.638" rx="6.6383" ry="6.5" transform="rotate(90 17.499 129.638)" fill="#FFC500"/>
<ellipse cx="98.999" cy="139.66" rx="2.04255" ry="2" transform="rotate(90 98.999 139.66)" fill="#FFC500"/>
<g clip-path="url(#clip0_1372_10698)">
<rect x="23.999" y="23" width="32" height="33" rx="10" fill="#2F2E41"/>
<rect x="23.999" y="76" width="32" height="33" rx="10" fill="#2F2E41"/>
<rect x="76.999" y="76" width="32" height="33" rx="10" fill="#2F2E41"/>
<path d="M46.2907 17H34.1657C29.878 17 25.766 18.7033 22.7341 21.7351C19.7023 24.7669 17.999 28.879 17.999 33.1667L17.999 45.2917C17.999 49.5793 19.7023 53.6914 22.7341 56.7232C25.766 59.7551 29.878 61.4583 34.1657 61.4583H46.2907C50.5784 61.4583 54.6904 59.7551 57.7223 56.7232C60.7541 53.6914 62.4574 49.5793 62.4574 45.2917V33.1667C62.4574 28.879 60.7541 24.7669 57.7223 21.7351C54.6904 18.7033 50.5784 17 46.2907 17V17ZM54.374 45.2917C54.374 47.4355 53.5224 49.4915 52.0065 51.0074C50.4906 52.5234 48.4345 53.375 46.2907 53.375H34.1657C32.0219 53.375 29.9658 52.5234 28.4499 51.0074C26.934 49.4915 26.0824 47.4355 26.0824 45.2917V33.1667C26.0824 31.0228 26.934 28.9668 28.4499 27.4509C29.9658 25.935 32.0219 25.0833 34.1657 25.0833H46.2907C48.4345 25.0833 50.4906 25.935 52.0065 27.4509C53.5224 28.9668 54.374 31.0228 54.374 33.1667V45.2917Z" fill="#3F3D56"/>
<path d="M46.2907 69.542H34.1657C29.878 69.542 25.766 71.2453 22.7341 74.2771C19.7023 77.3089 17.999 81.421 17.999 85.7087L17.999 97.8337C17.999 102.121 19.7023 106.233 22.7341 109.265C25.766 112.297 29.878 114 34.1657 114H46.2907C50.5784 114 54.6904 112.297 57.7223 109.265C60.7541 106.233 62.4574 102.121 62.4574 97.8337V85.7087C62.4574 81.421 60.7541 77.3089 57.7223 74.2771C54.6904 71.2453 50.5784 69.542 46.2907 69.542V69.542ZM54.374 97.8337C54.374 99.9775 53.5224 102.034 52.0065 103.549C50.4906 105.065 48.4345 105.917 46.2907 105.917H34.1657C32.0219 105.917 29.9658 105.065 28.4499 103.549C26.934 102.034 26.0824 99.9775 26.0824 97.8337V85.7087C26.0824 83.5648 26.934 81.5088 28.4499 79.9929C29.9658 78.477 32.0219 77.6253 34.1657 77.6253H46.2907C48.4345 77.6253 50.4906 78.477 52.0065 79.9929C53.5224 81.5088 54.374 83.5648 54.374 85.7087V97.8337Z" fill="#3F3D56"/>
<path d="M98.8327 69.542H86.7077C82.42 69.542 78.308 71.2453 75.2761 74.2771C72.2443 77.3089 70.541 81.421 70.541 85.7087V97.8337C70.541 102.121 72.2443 106.233 75.2761 109.265C78.308 112.297 82.42 114 86.7077 114H98.8327C103.12 114 107.232 112.297 110.264 109.265C113.296 106.233 114.999 102.121 114.999 97.8337V85.7087C114.999 81.421 113.296 77.3089 110.264 74.2771C107.232 71.2453 103.12 69.542 98.8327 69.542V69.542ZM106.916 97.8337C106.916 99.9775 106.064 102.034 104.548 103.549C103.033 105.065 100.977 105.917 98.8327 105.917H86.7077C84.5639 105.917 82.5078 105.065 80.9919 103.549C79.476 102.034 78.6243 99.9775 78.6243 97.8337V85.7087C78.6243 83.5648 79.476 81.5088 80.9919 79.9929C82.5078 78.477 84.5639 77.6253 86.7077 77.6253H98.8327C100.977 77.6253 103.033 78.477 104.548 79.9929C106.064 81.5088 106.916 83.5648 106.916 85.7087V97.8337Z" fill="#3F3D56"/>
<path d="M74.5827 45.2913H106.916C107.988 45.2913 109.016 44.8655 109.774 44.1076C110.532 43.3496 110.958 42.3216 110.958 41.2497C110.958 40.1778 110.532 39.1497 109.774 38.3918C109.016 37.6338 107.988 37.208 106.916 37.208H74.5827C73.5108 37.208 72.4828 37.6338 71.7248 38.3918C70.9668 39.1497 70.541 40.1778 70.541 41.2497C70.541 42.3216 70.9668 43.3496 71.7248 44.1076C72.4828 44.8655 73.5108 45.2913 74.5827 45.2913V45.2913Z" fill="#3F3D56"/>
</g>
<defs>
<clipPath id="clip0_1372_10698">
<rect width="97" height="97" fill="white" transform="translate(17.999 17)"/>
</clipPath>
</defs>
</svg>
