<svg width="134" height="137" viewBox="0 0 134 137" fill="none" xmlns="http://www.w3.org/2000/svg">
<path d="M134 70.1606C134 107.075 104.003 137 67 137C29.9969 137 0 107.075 0 70.1606C0 33.2462 29.9969 3.32115 67 3.32115C104.003 3.32115 134 33.2462 134 70.1606Z" fill="#F3F4F8"/>
<path d="M104.185 120.566C105.659 120.566 106.854 121.788 106.854 123.296C106.854 124.804 105.659 126.026 104.185 126.026C102.711 126.026 101.516 124.804 101.516 123.296C101.516 121.788 102.711 120.566 104.185 120.566Z" fill="#FF6258"/>
<path d="M101.192 117.504C101.192 119.012 99.9975 120.235 98.5235 120.235C97.0495 120.235 95.8546 119.012 95.8546 117.504C95.8546 115.996 97.0495 114.774 98.5235 114.774C99.9975 114.774 101.192 115.996 101.192 117.504Z" fill="#FF6258"/>
<path d="M104.49 114.13C103.016 114.13 101.821 112.908 101.821 111.4C101.821 109.892 103.016 108.67 104.49 108.67C105.964 108.67 107.159 109.892 107.159 111.4C107.159 112.908 105.964 114.13 104.49 114.13Z" fill="#FF6258"/>
<path d="M117.668 20.7528C116.194 20.7528 114.999 19.5305 114.999 18.0226C114.999 16.5147 116.194 15.2924 117.668 15.2924C119.142 15.2924 120.337 16.5147 120.337 18.0226C120.337 19.5305 119.142 20.7528 117.668 20.7528Z" fill="#FF6258"/>
<path d="M7.66782 105.549C6.19379 105.549 4.99886 104.327 4.99886 102.819C4.99886 101.311 6.19379 100.089 7.66782 100.089C9.14184 100.089 10.3368 101.311 10.3368 102.819C10.3368 104.327 9.14184 105.549 7.66782 105.549Z" fill="#FF6258"/>
<path d="M107.483 117.192C107.483 115.684 108.678 114.461 110.152 114.461C111.626 114.461 112.821 115.684 112.821 117.192C112.821 118.7 111.626 119.922 110.152 119.922C108.678 119.922 107.483 118.7 107.483 117.192Z" fill="#FF6258"/>
<path d="M115.358 52.3183C115.228 49.212 114.125 46.2307 112.211 43.8154C110.297 41.4001 107.674 39.679 104.73 38.9066L85.9361 33.7551L84.9951 13.9902C84.8478 10.8792 83.7385 7.89654 81.8271 5.47217C79.9157 3.0478 77.3011 1.30705 74.3601 0.500934C71.4192 -0.305177 68.3039 -0.134991 65.4636 0.986951C62.6233 2.10889 60.2048 4.12461 58.5567 6.74344L48.081 23.3791L29.2867 18.2276C26.3594 17.4298 23.2604 17.5987 20.4324 18.7102C17.6045 19.8217 15.1923 21.819 13.5403 24.4167C11.8883 27.0145 11.0811 30.0798 11.2339 33.1749C11.3867 36.27 12.4918 39.2365 14.3913 41.6507L26.6913 57.2848L16.0493 74.1154C14.3609 76.7154 13.5391 79.8039 13.7065 82.9206C13.8739 86.0372 15.0214 89.0151 16.978 91.4103C18.8788 93.8498 21.4991 95.5958 24.4487 96.3881C27.3983 97.1805 30.5193 96.9767 33.3465 95.8072L51.2738 88.6377L63.3028 104.004C65.2019 106.432 67.8048 108.182 70.7372 109.001C73.6696 109.821 76.7805 109.668 79.6227 108.565C82.4648 107.462 84.8918 105.465 86.5548 102.862C88.2177 100.259 89.0309 97.1832 88.8774 94.0775L87.8876 74.0587L106.199 66.8151C109.045 65.7254 111.472 63.7272 113.122 61.1163C114.772 58.5054 115.556 55.4205 115.358 52.3183ZM102.984 58.317L81.6664 66.7598C80.7911 67.1055 80.0449 67.7252 79.5342 68.5304C79.0236 69.3357 78.7746 70.2853 78.8228 71.2439L79.9847 94.5312C80.0428 95.7121 79.7334 96.8814 79.1009 97.8711C78.4683 98.8607 77.5454 99.6197 76.4646 100.039C75.3838 100.458 74.2009 100.516 73.0859 100.204C71.971 99.8923 70.9814 99.2268 70.2595 98.3034L56.188 80.2972C55.5949 79.54 54.7811 78.9963 53.865 78.7452C52.9489 78.4941 51.9784 78.5487 51.0947 78.9012L30.1073 87.2977C29.0289 87.7374 27.8416 87.8144 26.7175 87.5175C25.5934 87.2205 24.591 86.5651 23.8556 85.6461C23.1202 84.7272 22.69 83.5926 22.6274 82.4067C22.5648 81.2208 22.873 80.0454 23.5074 79.0508L35.9175 59.4835C36.4277 58.6781 36.6763 57.7283 36.6277 56.7698C36.579 55.8112 36.2357 54.8929 35.6466 54.1458L21.3116 35.9306C20.59 35.0121 20.1706 33.8839 20.1133 32.707C20.0559 31.5301 20.3637 30.3647 20.9925 29.3774C21.6213 28.3901 22.5391 27.6314 23.6146 27.2095C24.6902 26.7877 25.8686 26.7243 26.9815 27.0285L48.9202 33.0419C49.831 33.2915 50.7957 33.239 51.6754 32.8919C52.5551 32.5448 53.3044 31.921 53.8154 31.1105L66.0515 11.6795C66.6787 10.6854 67.5981 9.9206 68.6772 9.49507C69.7564 9.06954 70.9397 9.00525 72.0569 9.31146C73.1741 9.61768 74.1675 10.2786 74.8941 11.1991C75.6207 12.1196 76.043 13.2522 76.1003 14.4339L77.1996 37.5201C77.2459 38.4834 77.59 39.4068 78.1822 40.1574C78.7744 40.9079 79.5841 41.4468 80.4949 41.6965L102.434 47.7099C103.546 48.0157 104.536 48.6733 105.261 49.5887C105.986 50.5042 106.41 51.6307 106.472 52.8074C106.534 53.984 106.231 55.1506 105.606 56.1405C104.981 57.1304 104.067 57.893 102.993 58.3194L102.984 58.317Z" fill="#FF6258"/>
<path d="M42.25 50.1871C42.25 44.6775 46.7271 40.211 52.25 40.211H78.6598C84.1827 40.211 88.6598 44.6775 88.6598 50.1871V97.851C88.6598 103.361 84.1827 107.827 78.6598 107.827H52.25C46.7272 107.827 42.25 103.361 42.25 97.851V50.1871Z" fill="#2F2E41"/>
<path d="M48.8408 39.5291C48.8408 35.6724 51.9748 32.5459 55.8408 32.5459H75.8408C79.7068 32.5459 82.8408 35.6724 82.8408 39.5291C82.8408 43.3858 79.7068 46.5123 75.8408 46.5123H55.8408C51.9748 46.5123 48.8408 43.3858 48.8408 39.5291Z" fill="#F3F4F8"/>
<path d="M97.8011 41.65H86.9018C86.0858 37.5909 83.9267 33.9437 80.7885 31.3232C77.6503 28.7026 73.7249 27.2689 69.6739 27.2636H62.6421C58.5911 27.2689 54.6656 28.7026 51.5275 31.3232C48.3893 33.9437 46.2302 37.5909 45.4142 41.65H34.5149C33.5824 41.65 32.6882 42.0289 32.0288 42.7034C31.3694 43.3779 30.999 44.2927 30.999 45.2466C30.999 46.2005 31.3694 47.1153 32.0288 47.7898C32.6882 48.4643 33.5824 48.8432 34.5149 48.8432H38.0308V95.5989C38.0364 100.367 39.8903 104.937 43.1859 108.309C46.4815 111.68 50.9496 113.576 55.6103 113.582H76.7057C81.3663 113.576 85.8345 111.68 89.1301 108.309C92.4257 104.937 94.2796 100.367 94.2852 95.5989V48.8432H97.8011C98.7335 48.8432 99.6278 48.4643 100.287 47.7898C100.947 47.1153 101.317 46.2005 101.317 45.2466C101.317 44.2927 100.947 43.3779 100.287 42.7034C99.6278 42.0289 98.7335 41.65 97.8011 41.65ZM62.6421 34.4568H69.6739C71.8547 34.4595 73.9813 35.1523 75.7621 36.4401C77.5428 37.728 78.8905 39.5478 79.6204 41.65H52.6956C53.4255 39.5478 54.7732 37.728 56.5539 36.4401C58.3347 35.1523 60.4613 34.4595 62.6421 34.4568ZM87.2534 95.5989C87.2534 98.4606 86.1421 101.205 84.164 103.228C82.1859 105.252 79.5031 106.389 76.7057 106.389H55.6103C52.8129 106.389 50.13 105.252 48.152 103.228C46.1739 101.205 45.0626 98.4606 45.0626 95.5989V48.8432H87.2534V95.5989Z" fill="#3F3D56"/>
<path d="M59.1262 92.0027C60.0587 92.0027 60.953 91.6238 61.6124 90.9493C62.2717 90.2748 62.6421 89.36 62.6421 88.4061V66.8266C62.6421 65.8727 62.2717 64.9579 61.6124 64.2834C60.953 63.6089 60.0587 63.23 59.1262 63.23C58.1938 63.23 57.2995 63.6089 56.6401 64.2834C55.9808 64.9579 55.6103 65.8727 55.6103 66.8266V88.4061C55.6103 89.36 55.9808 90.2748 56.6401 90.9493C57.2995 91.6238 58.1938 92.0027 59.1262 92.0027Z" fill="#3F3D56"/>
<path d="M73.1897 92.0027C74.1222 92.0027 75.0165 91.6238 75.6758 90.9493C76.3352 90.2748 76.7056 89.36 76.7056 88.4061V66.8266C76.7056 65.8727 76.3352 64.9579 75.6758 64.2834C75.0165 63.6089 74.1222 63.23 73.1897 63.23C72.2572 63.23 71.363 63.6089 70.7036 64.2834C70.0442 64.9579 69.6738 65.8727 69.6738 66.8266V88.4061C69.6738 89.36 70.0442 90.2748 70.7036 90.9493C71.363 91.6238 72.2572 92.0027 73.1897 92.0027Z" fill="#3F3D56"/>
</svg>
