<svg width="143" height="155" viewBox="0 0 143 155" fill="none" xmlns="http://www.w3.org/2000/svg">
<path d="M133.637 86.5747C133.637 123.683 103.721 153.765 66.8183 153.765C29.9156 153.765 0 123.683 0 86.5747C0 49.4665 29.9156 19.3845 66.8183 19.3845C103.721 19.3845 133.637 49.4665 133.637 86.5747Z" fill="#F3F4F8"/>
<path d="M142.97 52.5929C142.841 49.4703 141.741 46.4734 139.832 44.0454C137.923 41.6174 135.307 39.8873 132.371 39.1108L113.628 33.9323L112.69 14.0636C112.543 10.9363 111.436 7.93799 109.53 5.50089C107.624 3.06379 105.016 1.31391 102.083 0.503563C99.1505 -0.306779 96.0437 -0.135699 93.2111 0.992131C90.3785 2.11996 87.9665 4.14626 86.3229 6.77883L75.8756 23.5018L57.1323 18.3232C54.2129 17.5212 51.1223 17.691 48.302 18.8084C45.4817 19.9257 43.076 21.9335 41.4285 24.5449C39.781 27.1562 38.976 30.2377 39.1284 33.349C39.2808 36.4603 40.3829 39.4424 42.2772 41.8693L54.5439 57.5855L43.9307 74.5044C42.2469 77.118 41.4274 80.2227 41.5943 83.3558C41.7612 86.4888 42.9056 89.4823 44.857 91.89C46.7525 94.3424 49.3658 96.0975 52.3074 96.894C55.249 97.6905 58.3615 97.4857 61.181 96.3101L79.0598 89.1029L91.0561 104.55C92.9501 106.991 95.5459 108.75 98.4704 109.573C101.395 110.397 104.497 110.243 107.332 109.134C110.166 108.026 112.587 106.018 114.245 103.402C115.903 100.785 116.714 97.6932 116.561 94.5713L115.574 74.4474L133.836 67.1657C136.674 66.0703 139.095 64.0617 140.74 61.4371C142.385 58.8124 143.167 55.7114 142.97 52.5929ZM130.63 58.6231L109.37 67.1102C108.497 67.4577 107.753 68.0806 107.244 68.8901C106.734 69.6996 106.486 70.6542 106.534 71.6178L107.693 95.0273C107.751 96.2144 107.442 97.3899 106.811 98.3848C106.181 99.3796 105.26 100.143 104.182 100.564C103.104 100.985 101.925 101.044 100.813 100.73C99.7008 100.417 98.7139 99.7476 97.994 98.8193L83.9606 80.7186C83.3692 79.9575 82.5576 79.4109 81.6439 79.1585C80.7303 78.9061 79.7624 78.961 78.8812 79.3153L57.9506 87.7559C56.8751 88.1979 55.691 88.2753 54.57 87.9768C53.449 87.6783 52.4493 87.0194 51.7159 86.0956C50.9825 85.1719 50.5535 84.0313 50.491 82.8392C50.4286 81.6471 50.736 80.4655 51.3686 79.4657L63.745 59.7957C64.2539 58.986 64.5018 58.0313 64.4533 57.0677C64.4048 56.1041 64.0624 55.181 63.4749 54.43L49.1788 36.1192C48.4591 35.1959 48.0408 34.0617 47.9837 32.8786C47.9265 31.6956 48.2334 30.5241 48.8605 29.5316C49.4877 28.5392 50.4029 27.7764 51.4756 27.3523C52.5482 26.9283 53.7234 26.8646 54.8333 27.1703L76.7126 33.2153C77.6208 33.4662 78.5829 33.4134 79.4602 33.0645C80.3376 32.7156 81.0848 32.0886 81.5945 31.2738L93.7974 11.7408C94.4229 10.7415 95.3397 9.97267 96.416 9.5449C97.4922 9.11714 98.6724 9.05251 99.7865 9.36034C100.901 9.66816 101.891 10.3325 102.616 11.2579C103.341 12.1832 103.762 13.3217 103.819 14.5096L104.915 37.717C104.961 38.6854 105.305 39.6137 105.895 40.3681C106.486 41.1226 107.293 41.6643 108.202 41.9153L130.081 47.9603C131.19 48.2677 132.177 48.9287 132.9 49.849C133.624 50.7693 134.047 51.9017 134.108 53.0845C134.17 54.2673 133.868 55.4401 133.245 56.4352C132.622 57.4303 131.709 58.1969 130.638 58.6254L130.63 58.6231Z" fill="#FFC500"/>
<path d="M14.7746 150.221C15.842 151.237 15.8492 152.972 14.7906 154.096C13.7321 155.22 12.0087 155.308 10.9413 154.291C9.87398 153.275 9.86682 151.54 10.9254 150.416C11.9839 149.292 13.7073 149.204 14.7746 150.221Z" fill="#FFC500"/>
<path d="M14.7566 145.876C13.698 147 11.9746 147.088 10.9073 146.071C9.83992 145.055 9.83276 143.32 10.8913 142.196C11.9498 141.072 13.6732 140.985 14.7406 142.001C15.8079 143.017 15.8151 144.753 14.7566 145.876Z" fill="#FFC500"/>
<path d="M19.514 145.635C18.4466 144.618 18.4394 142.883 19.498 141.759C20.5565 140.635 22.2799 140.548 23.3473 141.564C24.4146 142.581 24.4218 144.316 23.3632 145.44C22.3047 146.564 20.5813 146.651 19.514 145.635Z" fill="#FFC500"/>
<path d="M19.5311 149.982C20.5896 148.858 22.313 148.771 23.3803 149.787C24.4477 150.803 24.4549 152.539 23.3963 153.663C22.3378 154.786 20.6144 154.874 19.5471 153.857C18.4797 152.841 18.4725 151.106 19.5311 149.982Z" fill="#FFC500"/>
<path d="M68.236 7.48508C67.1686 6.46865 67.1615 4.7335 68.22 3.60951C69.2785 2.48551 71.0019 2.39831 72.0693 3.41474C73.1366 4.43116 73.1438 6.16631 72.0853 7.29031C71.0267 8.4143 69.3033 8.5015 68.236 7.48508Z" fill="#FFC500"/>
<path d="M6.70055 26.5132C4.10109 24.0378 4.03187 19.8669 6.54596 17.1974C9.06004 14.5278 13.2054 14.3705 15.8049 16.8459C18.4043 19.3213 18.4735 23.4921 15.9595 26.1616C13.4454 28.8312 9.30002 28.9886 6.70055 26.5132Z" fill="#FFC500"/>
<path d="M129.1 137.058C128.3 136.296 128.279 135.013 129.052 134.192C129.826 133.37 131.101 133.322 131.901 134.084C132.701 134.845 132.722 136.129 131.949 136.95C131.175 137.771 129.9 137.82 129.1 137.058Z" fill="#FFC500"/>
<path d="M21.9394 54.4457C21.9394 48.928 26.4044 44.455 31.9123 44.455H101.722C107.23 44.455 111.695 48.928 111.695 54.4457V116.697C111.695 122.215 107.23 126.688 101.722 126.688H31.9123C26.4044 126.688 21.9394 122.215 21.9394 116.697V54.4457Z" fill="#2F2E41"/>
<path d="M95.9049 40.7779H91.7496V36.5994C91.7496 35.4912 91.3118 34.4284 90.5325 33.6448C89.7532 32.8611 88.6963 32.4209 87.5942 32.4209C86.4921 32.4209 85.4352 32.8611 84.6559 33.6448C83.8766 34.4284 83.4388 35.4912 83.4388 36.5994V40.7779H50.1959V36.5994C50.1959 35.4912 49.7581 34.4284 48.9788 33.6448C48.1995 32.8611 47.1426 32.4209 46.0405 32.4209C44.9384 32.4209 43.8815 32.8611 43.1022 33.6448C42.3229 34.4284 41.8851 35.4912 41.8851 36.5994V40.7779H37.7298C32.2214 40.7845 26.9406 42.9878 23.0456 46.9045C19.1506 50.8212 16.9595 56.1314 16.9529 61.6704V111.812C16.9595 117.351 19.1506 122.662 23.0456 126.578C26.9406 130.495 32.2214 132.698 37.7298 132.705H95.9049C101.413 132.698 106.694 130.495 110.589 126.578C114.484 122.662 116.675 117.351 116.682 111.812V61.6704C116.675 56.1314 114.484 50.8212 110.589 46.9045C106.694 42.9878 101.413 40.7845 95.9049 40.7779ZM25.2637 61.6704C25.2637 58.3458 26.5771 55.1573 28.9149 52.8065C31.2528 50.4556 34.4235 49.1349 37.7298 49.1349H95.9049C99.2111 49.1349 102.382 50.4556 104.72 52.8065C107.058 55.1573 108.371 58.3458 108.371 61.6704V65.8489H25.2637V61.6704ZM95.9049 124.348H37.7298C34.4235 124.348 31.2528 123.027 28.9149 120.676C26.5771 118.325 25.2637 115.137 25.2637 111.812V74.2059H108.371V111.812C108.371 115.137 107.058 118.325 104.72 120.676C102.382 123.027 99.2111 124.348 95.9049 124.348Z" fill="#3F3D56"/>
<path d="M66.8173 101.366C70.2598 101.366 73.0504 98.5599 73.0504 95.0984C73.0504 91.6368 70.2598 88.8306 66.8173 88.8306C63.3749 88.8306 60.5843 91.6368 60.5843 95.0984C60.5843 98.5599 63.3749 101.366 66.8173 101.366Z" fill="#3F3D56"/>
<path d="M46.0408 101.366C49.4832 101.366 52.2739 98.5599 52.2739 95.0984C52.2739 91.6368 49.4832 88.8306 46.0408 88.8306C42.5984 88.8306 39.8078 91.6368 39.8078 95.0984C39.8078 98.5599 42.5984 101.366 46.0408 101.366Z" fill="#3F3D56"/>
<path d="M87.5939 101.366C91.0363 101.366 93.8269 98.5599 93.8269 95.0984C93.8269 91.6368 91.0363 88.8306 87.5939 88.8306C84.1514 88.8306 81.3608 91.6368 81.3608 95.0984C81.3608 98.5599 84.1514 101.366 87.5939 101.366Z" fill="#3F3D56"/>
</svg>
